<?xml version="1.0" encoding="UTF-8" standalone="no"?>
<svg width="115px" height="111px" viewBox="0 0 115 111" version="1.1" xmlns="http://www.w3.org/2000/svg" xmlns:xlink="http://www.w3.org/1999/xlink" xmlns:sketch="http://www.bohemiancoding.com/sketch/ns">
    <!-- Generator: Sketch 3.4.4 (17249) - http://www.bohemiancoding.com/sketch -->
    <title>img_no2@2x</title>
    <desc>Created with Sketch.</desc>
    <defs></defs>
    <g id="Page-1" stroke="none" stroke-width="1" fill="none" fill-rule="evenodd" sketch:type="MSPage">
        <g id="iPhone-5/5S/5C" sketch:type="MSArtboardGroup" transform="translate(-103.000000, -158.000000)">
            <g id="img_no2" sketch:type="MSLayerGroup" transform="translate(106.000000, 163.000000)">
                <g id="img" stroke="#2B6F69" stroke-width="7" sketch:type="MSShapeGroup" stroke-linecap="round">
                    <path d="M76.3,0 L107.817638,0 L107.817638,30.3" id="Path-512"></path>
                    <path d="M1.26607168,30.9088191 L1.26607168,-0.608819111 L31.5660717,-0.608819111" id="Path-512-Copy"></path>
                    <g id="Path-512-Copy-2-+-Path-512-Copy-3" transform="translate(54.919231, 85.850000) rotate(-180.000000) translate(-54.919231, -85.850000) translate(0.838462, 70.700000)">
                        <path d="M76.3,0 L107.817638,0 L107.817638,30.3" id="Path-512-Copy-2"></path>
                        <path d="M0.608819111,30.9088191 L0.608819111,-0.608819111 L30.9088191,-0.608819111" id="Path-512-Copy-3"></path>
                    </g>
                </g>
                <path d="M82.8404,50.4202 C82.8404,66.1163714 70.1163714,78.8404 54.4202,78.8404 C38.7240286,78.8404 26,66.1163714 26,50.4202 C26,34.7240286 38.7240286,22 54.4202,22 C70.1163714,22 82.8404,34.7240286 82.8404,50.4202 Z M44.6470933,67.1176171 L44.6470933,62.8181886 L57.590979,47.0878171 C58.8661504,45.5292743 59.3856647,44.3013314 59.3856647,42.5994743 C59.3856647,39.5768457 57.590979,37.4987886 54.4722647,37.4987886 C51.9219219,37.4987886 49.5116361,38.9156457 49.5116361,42.6939314 L44.6943219,42.6939314 C44.6943219,36.9792743 48.755979,33.19936 54.4722647,33.19936 C60.235779,33.19936 64.2046076,36.8375886 64.2046076,42.6483314 C64.2046076,45.6237314 63.1167219,47.3711886 61.0386647,49.9215314 L50.5050647,62.8181886 L64.2046076,62.8181886 L64.2046076,67.1176171 L44.6470933,67.1176171 Z" id="Fill-1" fill="#2B6F69" sketch:type="MSShapeGroup"></path>
            </g>
        </g>
    </g>
</svg>